<?xml version="1.0" encoding="utf-8"?>
<!-- Generator: Adobe Illustrator 16.0.3, SVG Export Plug-In . SVG Version: 6.00 Build 0)  -->
<!DOCTYPE svg PUBLIC "-//W3C//DTD SVG 1.1//EN" "http://www.w3.org/Graphics/SVG/1.1/DTD/svg11.dtd">
<svg version="1.1" xmlns="http://www.w3.org/2000/svg" xmlns:xlink="http://www.w3.org/1999/xlink" x="0px" y="0px"
	 width="771.024px" height="362.835px" viewBox="0 0 771.024 362.835" enable-background="new 0 0 771.024 362.835"
	 xml:space="preserve">
<g id="BR_x5F_Circle">
	<path fill="#44C0F0" d="M260.234,229.444c-52.386,30.247-102.702,50.114-143.333,62c-46.059,13.474-86.417,14.25-97.083-7.417
		c-9.354-19,7.311-48.502,31.284-74.735c30.229-33.081,77.268-67.956,129.654-98.2c52.387-30.246,102.105-47.902,145.333-59.685
		c30.834-8.404,67.829-8.638,80.48,7.87c14.108,18.41-9.112,54.875-26.679,73.648C346.804,168.282,312.619,199.202,260.234,229.444z
		 M185.567,113.027c-40,23-106.667,72.584-127.333,96.417c-26.045,30.035-40.917,50.333-33.667,67.833
		c8.608,20.777,43.667,17.733,71.806,10.963c42.444-10.213,106.466-36.752,147.976-61.572
		c43.718-26.141,97.323-64.663,127.313-97.366c26.869-29.301,34.804-52.165,27.572-64.691c-7.231-12.525-30.928-16.961-69.738-8.342
		C286.18,65.89,224.067,91.027,185.567,113.027z"/>
</g>
<g id="YR_x5F_Circle">
	<path fill="#F39800" d="M217.512,25.751c41.491,0,80.499,16.157,109.837,45.496c29.339,29.338,45.496,68.346,45.496,109.837
		c0,41.491-16.157,80.498-45.496,109.837c-29.338,29.339-68.346,45.496-109.837,45.496s-80.499-16.157-109.837-45.496
		c-29.339-29.339-45.496-68.346-45.496-109.837c0-41.491,16.157-80.499,45.496-109.837
		C137.014,41.908,176.021,25.751,217.512,25.751 M217.512,16.751c-90.759,0-164.333,73.574-164.333,164.333
		c0,90.758,73.574,164.333,164.333,164.333s164.333-73.575,164.333-164.333C381.845,90.325,308.271,16.751,217.512,16.751
		L217.512,16.751z"/>
</g>
<g id="Obit_x5F_ball">
	<circle fill="#FFFFFF" cx="314.567" cy="53.777" r="19.843"/>
</g>
<g id="Obit_x5F_ballのコピー">
	<circle fill="#E60012" cx="314.567" cy="53.777" r="15.591"/>
</g>
<g id="Font_x5F_LineBase">
	<g>
		<g>
			<path fill="none" stroke="#FFFFFF" stroke-width="10" stroke-linejoin="round" d="M106.167,153.637
				c8.599,6.921,12.9,16.542,12.9,28.861c0,12.32-4.281,21.94-12.84,28.859c-8.562,6.92-19.401,10.38-32.52,10.38h-13.56v14.04
				h-31.92v-92.52h45.36C86.706,143.257,97.566,146.719,106.167,153.637z M84.387,182.498c0-3.199-1.101-5.66-3.3-7.381
				c-2.201-1.719-4.94-2.58-8.22-2.58h-12.84v19.92h12.72c3.36,0,6.139-0.879,8.34-2.64
				C83.286,188.059,84.387,185.617,84.387,182.498z"/>
			<path fill="none" stroke="#FFFFFF" stroke-width="10" stroke-linejoin="round" d="M180.507,235.777h-57.72v-92.52h31.8v63.84
				h25.92V235.777z"/>
			<path fill="none" stroke="#FFFFFF" stroke-width="10" stroke-linejoin="round" d="M280.107,235.777h-31.2v-4.439h-19.2v-31.201
				h19.2v-22.08c-10.001,5.041-17.601,12.621-22.8,22.74c-5.201,10.121-8,21.78-8.4,34.98h-33.48c0.399-9.76,1.74-19.099,4.02-28.02
				c2.28-8.92,5.64-17.32,10.08-25.201c4.44-7.878,9.739-14.718,15.9-20.52c6.159-5.799,13.639-10.38,22.44-13.74
				c8.799-3.36,18.399-5.04,28.8-5.04h14.64V235.777z"/>
			<path fill="none" stroke="#FFFFFF" stroke-width="10" stroke-linejoin="round" d="M375.147,143.257l-29.761,47.879v44.641h-31.8
				v-44.641l-29.76-47.879h34.92l10.8,18.96l10.68-18.96H375.147z"/>
			<path fill="none" stroke="#FFFFFF" stroke-width="10" stroke-linejoin="round" d="M459.986,235.777h-57.72v-92.52h31.8v63.84
				h25.92V235.777z"/>
			<path fill="none" stroke="#FFFFFF" stroke-width="10" stroke-linejoin="round" d="M495.747,235.777h-32.04v-92.52h32.04V235.777z
				"/>
			<path fill="none" stroke="#FFFFFF" stroke-width="10" stroke-linejoin="round" d="M595.465,235.777h-31.2
				c0-7.359-0.86-14.16-2.58-20.4c-1.721-6.24-4.14-11.699-7.26-16.379c-3.12-4.681-6.642-8.74-10.561-12.181
				c-3.92-3.438-8.279-6.36-13.079-8.761v57.721h-31.32v-92.52h15.12c19.278,0,35.799,5.921,49.56,17.76v-17.76h31.32V235.777z"/>
			<path fill="none" stroke="#FFFFFF" stroke-width="10" stroke-linejoin="round" d="M686.905,143.257l-23.28,31.68l21.96,60.84
				h-34.079l-10.801-29.76l-9.72,13.199v16.561h-31.8v-92.52h31.8v25.08l18.48-25.08H686.905z"/>
			<path fill="none" stroke="#FFFFFF" stroke-width="10" stroke-linejoin="round" d="M757.224,171.938h-28.68
				c6.879,2.721,12.579,8.061,17.1,16.02c4.52,7.961,6.78,16.461,6.78,25.5c0,8.082-1.92,15.521-5.76,22.32h-56.04v-28.561h29.16
				c-6.96-2.719-12.762-8.059-17.4-16.02c-4.641-7.959-6.96-16.5-6.96-25.62c0-8.319,1.92-15.759,5.76-22.32h56.04V171.938z"/>
		</g>
		<g>
			<path fill="#FFFFFF" d="M106.167,153.637c8.599,6.921,12.9,16.542,12.9,28.861c0,12.32-4.281,21.94-12.84,28.859
				c-8.562,6.92-19.401,10.38-32.52,10.38h-13.56v14.04h-31.92v-92.52h45.36C86.706,143.257,97.566,146.719,106.167,153.637z
				 M84.387,182.498c0-3.199-1.101-5.66-3.3-7.381c-2.201-1.719-4.94-2.58-8.22-2.58h-12.84v19.92h12.72
				c3.36,0,6.139-0.879,8.34-2.64C83.286,188.059,84.387,185.617,84.387,182.498z"/>
			<path fill="#FFFFFF" d="M180.507,235.777h-57.72v-92.52h31.8v63.84h25.92V235.777z"/>
			<path fill="#FFFFFF" d="M280.107,235.777h-31.2v-4.439h-19.2v-31.201h19.2v-22.08c-10.001,5.041-17.601,12.621-22.8,22.74
				c-5.201,10.121-8,21.78-8.4,34.98h-33.48c0.399-9.76,1.74-19.099,4.02-28.02c2.28-8.92,5.64-17.32,10.08-25.201
				c4.44-7.878,9.739-14.718,15.9-20.52c6.159-5.799,13.639-10.38,22.44-13.74c8.799-3.36,18.399-5.04,28.8-5.04h14.64V235.777z"/>
			<path fill="#FFFFFF" d="M375.147,143.257l-29.761,47.879v44.641h-31.8v-44.641l-29.76-47.879h34.92l10.8,18.96l10.68-18.96
				H375.147z"/>
			<path fill="#FFFFFF" d="M459.986,235.777h-57.72v-92.52h31.8v63.84h25.92V235.777z"/>
			<path fill="#FFFFFF" d="M495.747,235.777h-32.04v-92.52h32.04V235.777z"/>
			<path fill="#FFFFFF" d="M595.465,235.777h-31.2c0-7.359-0.86-14.16-2.58-20.4c-1.721-6.24-4.14-11.699-7.26-16.379
				c-3.12-4.681-6.642-8.74-10.561-12.181c-3.92-3.438-8.279-6.36-13.079-8.761v57.721h-31.32v-92.52h15.12
				c19.278,0,35.799,5.921,49.56,17.76v-17.76h31.32V235.777z"/>
			<path fill="#FFFFFF" d="M686.905,143.257l-23.28,31.68l21.96,60.84h-34.079l-10.801-29.76l-9.72,13.199v16.561h-31.8v-92.52h31.8
				v25.08l18.48-25.08H686.905z"/>
			<path fill="#FFFFFF" d="M757.224,171.938h-28.68c6.879,2.721,12.579,8.061,17.1,16.02c4.52,7.961,6.78,16.461,6.78,25.5
				c0,8.082-1.92,15.521-5.76,22.32h-56.04v-28.561h29.16c-6.96-2.719-12.762-8.059-17.4-16.02c-4.641-7.959-6.96-16.5-6.96-25.62
				c0-8.319,1.92-15.759,5.76-22.32h56.04V171.938z"/>
		</g>
	</g>
</g>
<g id="Minstrel_x5F_font_x5B_S_x5D_">
	<g>
		<path fill="#0C0B0B" d="M756.827,171.938h-28.68c6.879,2.721,12.579,8.061,17.1,16.02c4.52,7.961,6.78,16.461,6.78,25.5
			c0,8.082-1.92,15.521-5.76,22.32h-56.04v-28.561h29.16c-6.961-2.719-12.762-8.059-17.4-16.02c-4.641-7.959-6.96-16.5-6.96-25.62
			c0-8.319,1.92-15.759,5.761-22.32h56.039V171.938z"/>
	</g>
</g>
<g id="Minstrel_x5F_font_x5B_K_x5D_">
	<g>
		<path fill="#0C0B0B" d="M686.947,143.257l-23.28,31.68l21.961,60.84h-34.08l-10.801-29.76l-9.72,13.199v16.561h-31.8v-92.52h31.8
			v25.08l18.479-25.08H686.947z"/>
	</g>
</g>
<g id="Minstrel_x5F_font_x5B_N_x5D_">
	<g>
		<path fill="#0C0B0B" d="M595.227,235.777h-31.2c0-7.359-0.86-14.16-2.58-20.4c-1.722-6.24-4.14-11.699-7.26-16.379
			c-3.12-4.681-6.642-8.74-10.56-12.181c-3.922-3.438-8.281-6.36-13.08-8.761v57.721h-31.32v-92.52h15.119
			c19.279,0,35.801,5.921,49.561,17.76v-17.76h31.32V235.777z"/>
	</g>
</g>
<g id="Minstrel_x5F_font_x5B_L_x5D_2">
	<g>
		<path fill="#0C0B0B" d="M459.947,235.777h-57.72v-92.52h31.8v63.84h25.92V235.777z"/>
	</g>
</g>
<g id="Minstrel_x5F_font_x5B_Y_x5D_">
	<g>
		<path fill="#0C0B0B" d="M374.946,143.257l-29.76,47.879v44.641h-31.8v-44.641l-29.76-47.879h34.92l10.8,18.96l10.68-18.96H374.946
			z"/>
	</g>
</g>
<g id="Minstrel_x5F_font_x5B_L_x5D__1_">
	<g>
		<path fill="#0C0B0B" d="M180.947,235.777h-57.72v-92.52h31.8v63.84h25.92V235.777z"/>
	</g>
</g>
<g id="Minstrel_x5F_font_x5B_P_x5D_">
	<g>
		<path fill="#0C0B0B" d="M106.167,153.637c8.599,6.921,12.9,16.542,12.9,28.861c0,12.32-4.281,21.94-12.84,28.859
			c-8.562,6.92-19.401,10.38-32.52,10.38h-13.56v14.04h-31.92v-92.52h45.36C86.706,143.257,97.566,146.719,106.167,153.637z
			 M84.387,182.498c0-3.199-1.101-5.66-3.3-7.381c-2.201-1.719-4.94-2.58-8.22-2.58h-12.84v19.92h12.72
			c3.36,0,6.139-0.879,8.34-2.64C83.286,188.059,84.387,185.617,84.387,182.498z"/>
	</g>
</g>
<g id="Minstrel_x5F_font_x5B_I_x5D_">
	<g>
		<path fill="#F39800" d="M493.846,235.777H465.01v-92.52h28.836V235.777z"/>
	</g>
</g>
<g id="Minstrel_x5F_font_x5B_A_x5D_">
	<g>
		<path fill="#F39800" d="M280.107,235.777h-31.2v-4.439h-19.2v-31.201h19.2v-22.08c-10.001,5.041-17.601,12.621-22.8,22.74
			c-5.201,10.121-8,21.78-8.4,34.98h-33.48c0.399-9.76,1.74-19.099,4.02-28.02c2.28-8.92,5.64-17.32,10.08-25.201
			c4.44-7.878,9.739-14.718,15.9-20.52c6.159-5.799,13.639-10.38,22.44-13.74c8.799-3.36,18.399-5.04,28.8-5.04h14.64V235.777z"/>
	</g>
</g>
</svg>
